Coordinates
version=1
nRows=37
nColumns=19
inDegrees=yes

Units are S.I. units (second, meters, Newtons, ...)
If the header above contains a line with 'inDegrees', this indicates whether rotational values are in degrees (yes) or radians (no).

endheader
time	pelvis_tilt	pelvis_list	pelvis_rotation	pelvis_tx	pelvis_ty	pelvis_tz	hip_flexion_r	hip_adduction_r	hip_rotation_r	knee_angle_r	knee_angle_r_beta	ankle_angle_r	hip_flexion_l	hip_adduction_l	hip_rotation_l	knee_angle_l	knee_angle_l_beta	ankle_angle_l
     16.77333333	     -4.90685766	      5.79723170	      4.82512929	      2.34879194	      1.05446543	      1.12366795	    -12.96444008	     -6.60943547	     -7.86251349	     68.65552689	      1.19826499	    -27.21850596	     22.36023670	     10.30765526	     -1.20516691	      8.18628275	      0.14287759	      6.20853048
     16.78000000	     -4.95855643	      6.36932850	      5.24907201	      2.34773458	      1.04875014	      1.12323453	    -11.82772937	     -7.57641562	     -8.22963571	     72.46813524	      1.26480756	    -26.56350888	     23.07433727	     11.01174727	     -1.83513729	     11.04903294	      0.19284200	      6.28604893
     16.78666667	     -4.23315174	      7.16113738	      5.62294975	      2.34669328	      1.04344082	      1.12293771	    -11.60576886	     -8.74526742	     -8.66794916	     76.05480865	      1.32740682	    -25.64624967	     22.95548667	     11.82923804	     -2.55006786	     14.18565267	      0.24758635	      6.47796102
     16.79333333	     -4.25915815	      7.62511072	      5.99621602	      2.34528096	      1.03691175	      1.12273257	    -10.34730467	     -9.61217150	     -8.76895906	     79.76361269	      1.39213766	    -24.44635427	     23.88893349	     12.27612490	     -3.37742216	     17.91811660	      0.31273013	      6.71205613
     16.80000000	     -3.86167718	      8.12892488	      6.30381683	      2.34380830	      1.03060980	      1.12273945	     -9.51697620	    -10.46738488	     -8.78364342	     83.28968342	      1.45367921	    -23.08261156	     24.31579903	     12.67791282	     -4.10059478	     21.71265273	      0.37895728	      7.13587800
     16.80666667	     -2.93301767	      8.78083651	      6.56175401	      2.34224610	      1.02475540	      1.12296060	     -9.25378476	    -11.42514214	     -8.80282293	     86.61722671	      1.51175580	    -21.59316584	     24.04652222	     13.16697930	     -4.63476129	     25.40147210	      0.44333932	      7.78732790
     16.81333333	     -2.96660870	      8.98654771	      6.70960846	      2.34026476	      1.01781891	      1.12338811	     -7.57230311	    -11.96505999	     -8.27653275	     90.08249982	      1.57223622	    -20.01700490	     24.92393880	     13.19873535	     -5.14404171	     29.27871740	      0.51101002	      8.68138887
     16.82000000	     -2.48075594	      9.32024993	      6.82454417	      2.33816507	      1.01164371	      1.12395597	     -6.41746681	    -12.56684001	     -7.76700619	     93.30541234	      1.62848666	    -18.45483263	     25.03731591	     13.36220402	     -5.36925063	     32.85219796	      0.57337902	      9.88461295
     16.82666667	     -1.52413079	      9.83971461	      6.95892662	      2.33607343	      1.00625543	      1.12452368	     -5.79158319	    -13.31917140	     -7.34864751	     96.25519819	      1.67997013	    -16.93906764	     24.40080491	     13.75404288	     -5.31910461	     36.07969997	      0.62970956	     11.38955489
     16.83333333	     -1.51066352	      9.81555430	      6.92297359	      2.33347182	      1.00029335	      1.12530498	     -3.66645331	    -13.51419754	     -6.34035704	     99.27772894	      1.73272324	    -15.44090195	     24.78903713	     13.60777827	     -5.29694004	     39.21591628	      0.68444686	     13.04275052
     16.84000000	     -1.09516586	      9.93782585	      6.96490858	      2.33089608	      0.99526740	      1.12596188	     -2.00646533	    -13.81630336	     -5.50311521	    101.98337505	      1.77994568	    -13.99315655	     24.44325091	     13.68245749	     -4.99719525	     41.90091557	      0.73130894	     14.89815661
     16.84666667	     -0.37743952	     10.10782752	      6.98550831	      2.32832885	      0.99124511	      1.12659703	     -0.62190145	    -14.13837412	     -4.70601181	    104.38285487	      1.82182450	    -12.64767960	     23.47421121	     13.82163765	     -4.57397674	     44.09729936	      0.76964307	     16.82370197
     16.85333333	     -0.27847093	      9.94981614	      6.97335551	      2.32569140	      0.98715070	      1.12709138	      1.67229970	    -14.12055659	     -3.68946374	    106.62683340	      1.86098931	    -11.47752285	     23.03985406	     13.63968534	     -4.23474651	     46.04927195	      0.80371141	     18.79541167
     16.86000000	      0.10599211	      9.81292869	      6.96379526	      2.32312933	      0.98418180	      1.12752483	      3.66283777	    -14.07699428	     -2.78632366	    108.50602199	      1.89378734	    -10.33273528	     21.96673310	     13.49323521	     -3.74402087	     47.44627767	      0.82809376	     20.70572225
     16.86666667	      0.63877005	      9.72401252	      7.08931910	      2.32105796	      0.98215345	      1.12756243	      5.35971590	    -14.14667180	     -2.18397145	    109.96172265	      1.91919411	     -9.23305097	     20.39123513	     13.44500567	     -3.08939221	     48.35618821	      0.84397470	     22.50979816
     16.87333333	      0.98744548	      9.43163409	      7.11791525	      2.31913223	      0.98075214	      1.12761814	      7.35084717	    -13.96248559	     -1.52427748	    111.11159158	      1.93926311	     -8.09455281	     18.81017771	     13.13370697	     -2.51551689	     48.87216792	      0.85298024	     24.15079616
     16.88000000	      1.22502011	      9.05918357	      7.17553450	      2.31746466	      0.98002173	      1.12748232	      9.43349914	    -13.69470645	     -0.98220583	    111.90841865	      1.95317037	     -7.10107825	     17.12257220	     12.74383079	     -1.90241210	     48.99511764	      0.85512612	     25.48341114
     16.88666667	      1.24527454	      8.38606452	      7.07357084	      2.31616057	      0.97985639	      1.12741346	     11.79776187	    -13.04377879	     -0.42731280	    112.35480819	      1.96096133	     -6.10971522	     15.55344714	     11.92371331	     -1.57783991	     48.85873830	      0.85274585	     26.56355022
     16.89333333	      1.25627902	      7.92242377	      7.19612014	      2.31527878	      0.98052166	      1.12678303	     13.92976910	    -12.79121803	     -0.26128494	    112.39118170	      1.96159617	     -5.22986771	     13.70645994	     11.45007717	     -0.92309871	     48.25342719	      0.84218118	     27.28107866
     16.90000000	      1.14540703	      7.38516281	      7.29627547	      2.31487274	      0.98186350	      1.12609981	     16.08104930	    -12.47898261	     -0.24179083	    112.05222143	      1.95568020	     -4.36929914	     11.83277605	     10.84373552	     -0.37365902	     47.34250146	      0.82628253	     27.66311763
     16.90666667	      1.67794104	      6.52234255	      7.12221096	      2.31473748	      0.98454357	      1.12575455	     17.43164069	    -11.55476564	     -0.30217052	    111.25904158	      1.94183660	     -3.35682240	      9.20783227	      9.70833985	     -0.03497727	     46.20238435	      0.80638373	     27.94729816
     16.91333333	      1.34951448	      5.90395569	      7.14907980	      2.31498295	      0.98703811	      1.12498240	     19.57929132	    -11.15322433	     -0.49939649	    110.24224147	      1.92409009	     -2.57720743	      7.37229878	      9.03170758	      0.51037643	     44.80479272	      0.78199115	     27.54249675
     16.92000000	      1.88086113	      4.93075990	      6.96182639	      2.31577025	      0.99126272	      1.12455548	     20.56605897	    -10.14163257	     -0.93805506	    108.67482796	      1.89673356	     -1.76045169	      4.53072862	      7.72416752	      0.71428949	     43.12439120	      0.75266261	     26.83878608
     16.92666667	      2.18890344	      4.22671798	      6.87174272	      2.31689894	      0.99580485	      1.12389256	     21.59309758	     -9.55791285	     -1.47896534	    106.85054521	      1.86489382	     -1.01488407	      1.80535804	      6.79998038	      1.07981162	     41.17928993	      0.71871419	     25.53046945
     16.93333333	      1.50560575	      3.53564799	      6.77861951	      2.31812203	      0.99975529	      1.12335373	     23.67614683	     -9.01395176	     -1.92430463	    104.89546488	      1.83077123	     -0.38727963	      0.22595841	      6.02399779	      1.40572794	     39.26628192	      0.68532590	     23.70905776
     16.94000000	      2.07193899	      2.39592808	      6.30619647	      2.32002396	      1.00568615	      1.12336252	     24.13914176	     -7.66970297	     -2.51482999	    102.35735872	      1.78647292	      0.18425078	     -2.77527692	      4.47091633	      0.97658346	     37.03297090	      0.64634727	     21.42874793
     16.94666667	      2.25465589	      1.64976900	      6.07300840	      2.32203008	      1.01160263	      1.12311088	     24.80587127	     -6.91736894	     -3.19839905	     99.64557955	      1.73914345	      0.79163425	     -5.43145338	      3.49532346	      0.97959283	     34.61018557	      0.60406169	     18.52822218
     16.95333333	      1.96325230	      0.75299244	      5.61033740	      2.32430332	      1.01734971	      1.12333648	     25.92547695	     -5.83938325	     -3.68956041	     96.71797995	      1.68804720	      1.25378330	     -7.48005204	      2.39512080	      0.51683514	     32.24492424	      0.56278009	     15.15212828
     16.96000000	      1.68114668	     -0.08950695	      5.10378690	      2.32683936	      1.02338539	      1.12366875	     26.84074234	     -4.78759012	     -4.19116849	     93.52623231	      1.63234069	      1.67401960	     -9.54558127	      1.37924407	     -0.08319768	     29.76810839	      0.51955150	     11.37324137
     16.96666667	      1.30477069	     -0.85960249	      4.55893715	      2.32954705	      1.02952477	      1.12412987	     27.69174187	     -3.76780604	     -4.65092643	     90.09901306	      1.57252443	      1.99842783	    -11.48501630	      0.48722076	     -0.76739815	     27.24944253	      0.47559249	      7.28331077
     16.97333333	      0.61828397	     -1.58311538	      3.81595216	      2.33240130	      1.03540823	      1.12495703	     28.76417125	     -2.65521671	     -4.89456128	     86.48915915	      1.50952059	      2.25789935	    -13.02762803	     -0.28138912	     -1.75286797	     24.79780052	      0.43280327	      3.05555223
     16.98000000	      0.06658846	     -2.20392216	      3.13781690	      2.33536522	      1.04146202	      1.12582461	     29.48296466	     -1.64553571	     -5.18825391	     82.63391047	      1.44223381	      2.45897034	    -14.69247934	     -0.91414951	     -2.64116816	     22.31924384	      0.38954429	     -1.16508369
     16.98666667	     -0.80509582	     -2.71466670	      2.29185772	      2.33837502	      1.04702999	      1.12698623	     30.44172788	     -0.62542975	     -5.25862965	     78.63879344	      1.37250587	      2.54245155	    -15.92333708	     -1.35620452	     -3.69858732	     20.02439908	      0.34949169	     -5.15244115
     16.99333333	     -1.42571364	     -3.14861152	      1.59042087	      2.34142104	      1.05266677	      1.12803546	     30.92631133	      0.24769153	     -5.48274327	     74.41980329	      1.29887060	      2.59069762	    -17.36089647	     -1.71981010	     -4.54137145	     17.81619350	      0.31095124	     -8.78743816
     17.00000000	     -2.32845516	     -3.42792275	      0.74235438	      2.34431146	      1.05759029	      1.12937912	     31.65103985	      1.11143931	     -5.43155365	     70.13127665	      1.22402169	      2.51199440	    -18.33293757	     -1.87061940	     -5.48378443	     15.98524833	      0.27899522	    -11.86986337
     17.00666667	     -3.01600099	     -3.62318701	      0.00039937	      2.34712231	      1.06233786	      1.13065862	     31.99251099	      1.84068940	     -5.47653487	     65.68308445	      1.14638609	      2.40885911	    -19.40612089	     -1.94797463	     -6.23428788	     14.44221290	      0.25206417	    -14.37095747
     17.01333333	     -3.68017141	     -3.70561354	     -0.66366343	      2.34977009	      1.06661620	      1.13191402	     32.20894070	      2.43013122	     -5.54483098	     61.15146630	      1.06729443	      2.25673308	    -20.31361581	     -1.93248294	     -6.84003067	     13.33498990	      0.23273948	    -16.17978750
